                <svg xmlns="http://www.w3.org/2000/svg" xmlns:xlink="http://www.w3.org/1999/xlink" height="75" fill="white">
                    <g id="logoTriunffo" transform="translate(0 25)">
                        <path id="Caminho_1" data-name="Caminho 1" class="cls-3" d="M251.834,4.742V22.46c0,4.006,0,4.011-4.084,4.011-2.9,0-5.794-.068-8.689,0-1.656.05-2.35-.549-2.341-2.228q.05-10.935,0-21.874c-.045-1.72.767-2.164,2.359-2.16,10.889.041,21.779-.041,32.668.05,4.351.036,7.3,2.3,7.845,5.581.653,3.9-1.425,6.506-7.26,8.621l11.475,11.974c-5.653,0-10.3.073-14.946-.068a4.427,4.427,0,0,1-2.486-1.456c-1.03-1.016-3.339-2.232-10.436-10.721-.535-.644-1.6-1.942-1.2-2.8.358-.771,1.865-1.166,2.078-1.221a5.613,5.613,0,0,1,.776-.141,14.728,14.728,0,0,1,2.763.023,4.668,4.668,0,0,0,2.6-.29,2.722,2.722,0,0,0,1.2-1.815,3.175,3.175,0,0,0-1.4-2.722,3.231,3.231,0,0,0-.767-.39C259.965,4.188,252.728,4.678,251.834,4.742Z" transform="translate(-195.659 -0.16)"/>
                        <path id="Caminho_2" data-name="Caminho 2" class="cls-3" d="M1685.83.16c3.094,0,6.2-.045,9.283.018,7.6.172,12.881,5.7,12.8,13.312a12.7,12.7,0,0,1-12.927,12.9q-9.138.118-18.276,0c-8.167-.1-13.417-5.445-13.3-13.358.109-7.822,5.286-12.8,13.439-12.877C1679.836.115,1682.83.156,1685.83.16Zm6.651,12.818h-.063c0-1.493.063-2.99,0-4.478-.141-2.682-1.815-4.124-4.292-3.938s-5.626-.263-7.645.372c-.808.254-1.361,1.13-1.915,2.223a2.624,2.624,0,0,0-.24,1.166c.036,3.371-.027,6.751.2,10.113a3.714,3.714,0,0,0,4.006,3.63c7.473.136,10.29.907,9.959-8.789Z" transform="translate(-1374.875 -0.103)"/>
                        <path id="Caminho_3" data-name="Caminho 3" class="cls-3" d="M1543.543,61.94c-2.7,0-5.395-.032-8.09,0-1.543.032-2.092-.626-2.1-2.155s.59-2.169,2.105-2.16q8.244.041,16.479,0c1.656,0,2.232.976,1.815,2.3-.231.776-1.157,1.842-1.842,1.9C1549.147,62.063,1546.338,61.94,1543.543,61.94Z" transform="translate(-1267.385 -47.618)"/>
                        <path id="Caminho_4" data-name="Caminho 4" class="cls-3" d="M26.974,22.261c-.091-4.537.077-9.106-.059-13.653a7.854,7.854,0,0,1,.059-1.27V5.228H39.1v.191h.113c-.091-1.688-.154-2.908-.222-4.111H0V5.437H11.77V27.4c4.279,0,8.063-.168,11.819.054,2.11.127,3.135-.322,3.385-1.965Z" transform="translate(0 -1.069)"/>
                        <path id="Caminho_5" data-name="Caminho 5" class="cls-3" d="M930.769,12.765V1.077h6.806V6.431c0,5.9-.122,11.8.054,17.654.077,2.591-.907,3.494-3.28,3.072a36.874,36.874,0,0,1-6.057-1.429c-9.279-3.358-18.512-6.833-27.763-10.259-.454-.168-.935-.268-1.933-.549,0,3.367-.145,6.493.041,9.6.154,2.509-1.148,2.818-3.1,2.654-1.751-.145-3.956.712-3.916-2.491.1-7.182,0-14.369.1-21.547,0-.74,1.107-2.11,1.656-2.087,2.945.113,6.057.059,8.784,1.007C910.628,5,918.95,8.377,927.33,11.58,928.224,11.925,929.158,12.207,930.769,12.765Z" transform="translate(-736.961 -0.851)"/>
                        <path id="Caminho_6" data-name="Caminho 6" class="cls-3" d="M628.2.186h16.334V10.9c0,9.909,1.125,11.053,10.889,11.03,6.951,0,8.716-1.674,8.884-8.548.091-3.589.145-7.187,0-10.771C664.2-.2,665.956.041,667.825-.059,669.89-.159,671,.309,670.9,2.7c-.154,3.684.027,7.382-.05,11.071-.168,7.6-4.083,11.947-11.724,12.337-6.352.327-12.777.34-19.143.032-8.167-.395-11.756-4.478-11.8-12.7C628.188,9.152,628.2,4.868,628.2.186Z" transform="translate(-519.221 0.071)"/>
                        <path id="Caminho_7" data-name="Caminho 7" class="cls-3" d="M1198.355.277c4.6,0,9.188.05,13.784,0,1.72-.027,2.573.454,2.564,2.346,0,1.969-1.221,1.965-2.591,1.96-4.991,0-9.982-.032-14.973,0s-6.225,1.293-6.257,6.2c-.027,4.4-.077,8.789,0,13.181.041,1.91-.544,2.677-2.554,2.613-3.888-.132-7.786-.082-11.679,0-1.67.027-2.586-.345-2.541-2.309.109-4.691-.1-9.392.063-14.065.2-5.526,3.7-9.074,9.528-9.705,2.468-.268,4.991-.15,7.477-.172C1193.564.259,1195.951.277,1198.355.277Z" transform="translate(-970.45 -0.215)"/>
                        <path id="Caminho_8" data-name="Caminho 8" class="cls-3" d="M1443.7.255c4.6,0,9.192.05,13.784,0,1.724-.027,2.573.454,2.563,2.346,0,1.969-1.216,1.965-2.591,1.96-4.991,0-9.982-.032-14.973,0s-6.221,1.293-6.257,6.2c-.027,4.4-.077,8.789,0,13.181.045,1.91-.54,2.677-2.55,2.613-3.893-.132-7.791-.082-11.683,0-1.67.027-2.586-.345-2.541-2.309.109-4.691-.1-9.392.068-14.065.209-5.572,3.721-9.12,9.51-9.751,2.473-.268,4.991-.15,7.482-.172C1438.907.237,1441.3.255,1443.7.255Z" transform="translate(-1173.238 -0.193)"/>
                        <path id="Caminho_9" data-name="Caminho 9" class="cls-3" d="M517.419.342c4.828,0,9.2-.073,13.566.091.549.018,1.488,1.266,1.488,1.956.109,7.387.122,14.778-.032,22.16,0,.69-1.361,1.883-2.133,1.928a101.548,101.548,0,0,1-10.771,0c-.721-.036-2.037-1.089-2.037-1.706C517.374,16.812,517.419,8.836,517.419.342Z" transform="translate(-427.664 -0.257)"/>
                        <path id="Caminho_10" data-name="Caminho 10" class="cls-3" d="M1298.282,61.94c-2.7,0-5.395-.032-8.09,0-1.543.032-2.092-.626-2.1-2.155s.59-2.169,2.105-2.16q8.235.041,16.479,0c1.652,0,2.228.976,1.815,2.3-.236.776-1.162,1.842-1.842,1.9C1303.886,62.063,1301.082,61.94,1298.282,61.94Z" transform="translate(-1064.669 -47.618)"/>

                    </g>
                </svg>
