<!-- pc.svg -->
<svg version="1.0" xmlns="http://www.w3.org/2000/svg" id="desenhoBanner" width="1024.000000pt" height="1024.000000pt" viewBox="0 0 1024.000000 1024.000000" preserveAspectRatio="xMidYMid meet">
	<defs>
		<linearGradient id="gradPadrao1" x1="0%" x2="100%" y1="100%" y2="0%">
			<stop style="stop-color: rgb(50,80,180); stop-opacity: 1" offset="0%"/>
			<stop style="stop-color: rgb(0,150,150); stop-opacity: 1" offset="100%"/>
		</linearGradient>
	</defs>
	<g transform="translate(0.000000,1024.000000) scale(0.100000,-0.100000)" fill="url(#gradPadrao1)" stroke="none"> <path d="M75 8810 c-3 -5 -15 -10 -26 -10 -11 0 -22 -8 -25 -17 -3 -10 -10 -26 -15 -35 -13 -25 -12 -6045 1 -6053 6 -3 10 -15 10 -26 0 -11 8 -22 18 -25 9 -3 26 -11 37 -17 15 -9 478 -13 1874 -17 l1854 -5 -1 -115 c-1 -63 -2 -118 -2 -122 0 -5 -566 -9 -1257 -10 l-1258 -3 -3 -132 -3 -133 3736 0 3736 0 -3 133 -3 132 -1220 5 -1220 5 -3 123 -3 122 1832 0 c1543 0 1836 2 1862 14 18 8 40 16 50 20 9 3 17 14 17 25 0 11 5 23 10 26 7 4 10 1023 10 3025 0 2002 -3 3021 -10 3025 -5 3 -10 15 -10 26 0 11 -8 22 -18 25 -9 3 -25 10 -34 15 -25 13 -9925 12 -9933 -1z m9753 -242 c17 -17 17 -5679 0 -5696 -17 -17 -9559 -17 -9576 0 -17 17 -17 5679 0 5696 17 17 9559 17 9576 0z"/> </g>

</svg>